<svg width="60" height="60" viewBox="0 0 60 60" fill="none" xmlns="http://www.w3.org/2000/svg">
<path d="M10.4725 4.14419V9.02606H0.52799V13.1847H10.4725V50.6124H16.0777V46.2729H14.6312V13.1847H24.7565V9.02606H14.6312V4.14419H10.4725Z" fill="white"/>
<path fill-rule="evenodd" clip-rule="evenodd" d="M20.4172 17.1625H26.2031V21.5019H24.7566V28.7343H27.4688C33.1643 28.7343 39.2214 33.8874 39.2214 38.8597V40.035C39.2214 45.1881 34.1587 50.2507 27.4688 50.6124H20.4172V17.1625ZM24.7566 46.9962V32.3505C24.7566 32.3505 32.6218 31.5369 34.0683 39.2213C34.1587 39.8542 34.0683 40.2158 34.0683 40.2158C32.8026 47.629 24.7566 46.9962 24.7566 46.9962Z" fill="white"/>
<path d="M54.7711 28.7344V34.3395H50.4316V33.2546C49.2563 33.2546 45.5497 35.4243 45.5497 39.0405V40.1254C45.5497 44.1936 48.6235 46.8154 53.7766 46.8154H54.7711V50.6124H52.963C48.3523 50.6124 40.6679 47.9906 40.6679 40.1254V39.0405C40.6679 32.1697 47.8099 28.3727 52.963 28.7344H54.7711Z" fill="white"/>
</svg>
